<?xml version="1.0" encoding="utf-8"?>
<!-- Generator: Adobe Illustrator 16.0.0, SVG Export Plug-In . SVG Version: 6.00 Build 0)  -->
<!DOCTYPE svg PUBLIC "-//W3C//DTD SVG 1.1//EN" "http://www.w3.org/Graphics/SVG/1.1/DTD/svg11.dtd">
<svg version="1.1" id="Layer_1" xmlns="http://www.w3.org/2000/svg" xmlns:xlink="http://www.w3.org/1999/xlink" x="0px" y="0px"
	 width="1200px" height="1200px" viewBox="0 0 1200 1200" enable-background="new 0 0 1200 1200" xml:space="preserve">
<g>
	<g>
		<g>
			<g>
				<g>
					<g>
						<path fill="#F7C68F" d="M663.527,1142.146c-2.247,0-4.201-1.122-5.648-3.248l-0.543-0.795
							c-4.45-6.516-11.172-16.362-14.325-25.904c-1.241-3.754-1.765-5.938-2.11-7.382c-0.56-2.332-0.693-2.887-2.804-5.733
							c-2.539-3.422-0.506-11.766,1.287-19.126c0.885-3.63,1.72-7.058,1.818-9.207c0.048-1.078,0.155-2.328,0.28-3.773l0.16-1.918
							c0.133-1.619-0.803-3.689-1.884-6.087c-1.477-3.278-3.318-7.357-3.399-12.336c-0.05-3.094,0.782-6.408,1.748-10.245
							c1.385-5.51,2.954-11.753,2.209-18.996c-0.709-6.926-1.601-14.917-2.542-23.377c-3.77-33.81-8.458-75.889-6.32-92.048
							c2.566-19.381,2.7-41.881,0.309-52.338c-2.473-10.818-7.113-67.513-7.702-100.333c-0.643-35.889-7.103-83.444-11.671-86.536
							c-4.568,3.092-11.031,50.647-11.673,86.536c-0.586,32.813-5.228,89.51-7.701,100.333c-2.39,10.453-2.259,32.954,0.307,52.338
							c2.14,16.16-2.55,58.244-6.319,92.059c-0.942,8.456-1.833,16.444-2.542,23.366c-0.662,6.448,1.705,11.938,3.793,16.782
							c1.546,3.588,3.008,6.978,2.933,10.171c-0.213,9.264-3.269,15.704-5.5,20.406c-1.215,2.559-2.174,4.582-2.11,5.996
							c0.098,2.148,0.933,5.576,1.817,9.205c1.794,7.361,3.826,15.706,1.289,19.128c-2.113,2.846-2.245,3.401-2.805,5.733
							c-0.346,1.444-0.869,3.627-2.111,7.382c-3.153,9.546-9.879,19.395-14.329,25.912l-0.538,0.787
							c-1.447,2.124-3.401,3.248-5.648,3.248c-4.065,0.001-8.008-3.66-8.681-6.129c-0.106-0.389-0.243-0.495-0.638-0.495
							c-0.581,0-1.478,0.295-2.429,0.606c-1.402,0.461-3.149,1.034-4.947,1.034c-1.12,0-2.167-0.226-3.112-0.67
							c-1.297-0.61-2.197-1.002-2.845-1.285c-1.797-0.782-1.901-0.86-2.774-2.099l-0.283-0.398
							c-0.648-0.908-1.695-1.102-2.907-1.327c-1.098-0.205-2.234-0.416-3.171-1.199c-1.225-1.021-1.906-2.467-2.766-4.298
							c-0.499-1.061-1.063-2.262-1.832-3.578c-2.206-3.782-2.761-5.7-2.464-11.986c0.177-3.758,7.045-11.395,14.316-19.479
							c5.262-5.852,10.701-11.903,12.353-15.332c3.365-6.989,3.019-11.751,2.263-22.184c-0.085-1.176-0.175-2.421-0.266-3.746
							c-0.885-12.984-10.243-64.59-15.935-85.556c-5.507-20.289-9.499-70.193-5.923-89.87c0.548-3.012,1.095-5.86,1.626-8.625
							c2.852-14.843,5.315-27.661,4.569-50.321c-0.862-26.131-1.974-41.31-17.708-100.309c-12.591-47.209-8.246-93.396-5.649-120.99
							c0.553-5.88,1.031-10.959,1.192-14.691c0.859-19.849,6.872-42.372,12.688-64.153l0.636-2.384
							c5.783-21.686,8.285-54.026,7.364-72.765c-0.875-17.784-6.995-30.784-9.848-30.784c-2.932,1.568-7.401,39.939-9.549,58.38
							l-0.406,3.482c-2.572,21.995-12.285,70.353-20.434,92.083c-2.93,7.814-5.358,13.756-7.309,18.529
							c-3.391,8.293-5.436,13.3-6.546,19.285c-0.734,3.961-1.375,13.23-2.056,23.045c-0.987,14.262-2.008,29.007-3.59,33.4
							c-0.798,2.217-1.451,4.686-2.082,7.071c-1.487,5.622-3.023,11.435-6.662,15.069c-3.505,3.506-4.55,3.854-6.239,4.206
							c-0.596,0.125-1.271,0.267-2.273,0.684c-1.46,0.608-2.351,2.222-3.21,3.781c-1.053,1.906-2.141,3.878-4.339,4.245
							c-1.825,0.303-3.815,2.061-6.119,4.096c-1.813,1.601-3.869,3.415-6.315,4.961c-1.719,1.086-3.063,1.041-3.87,0.007
							c-1.454-1.86-0.59-6.933,0.391-10.86c0.319-1.28,0.112-3.584-0.623-4.524c-0.263-0.338-0.5-0.377-0.655-0.377
							c-0.277,0-0.894,0.152-1.912,1.171c-1.218,1.217-2.352,1.811-3.467,1.811c-2.147,0-3.412-2.234-4.249-3.713
							c-0.187-0.33-0.357-0.632-0.516-0.871c-0.799-1.198,0.559-5.811,5.33-20.008c1.913-5.693,3.891-11.58,4.913-15.428
							c1.835-6.912,1.265-9.871,0.463-11.135c-0.395-0.623-0.935-0.988-1.653-1.118c-0.895,0.03-3.801,4.069-5.724,6.741
							c-2.575,3.579-5.237,7.28-7.343,8.606c-1.027,0.647-2.159,0.992-3.274,0.992c-1.873,0-3.573-0.967-4.331-2.462
							c-0.646-1.275-0.498-2.715,0.407-3.951c2.093-2.857,13.211-19.078,17.067-27.258c2.789-5.916,9.921-11.088,15.128-14.865
							c2.16-1.565,4.026-2.92,5.122-3.983c3.707-3.599,4.814-14.877,5.39-54.853c0.571-39.818,12.452-86.756,18.653-106.013
							c5.281-16.399,4.76-38.994,4.449-52.493l-0.052-2.231c-0.082-3.797-0.095-6.905-0.11-10.503
							c-0.039-9.202-0.088-20.654-1.366-51.541c-1.693-40.94,23.544-56.141,37.103-64.307c0.792-0.478,1.547-0.932,2.258-1.368
							c12.27-7.528,63.087-29.973,68.482-32.351c-0.096-2.819-0.513-16.18,0.027-19.444c0.488-2.946-3.61-11.865-6.322-17.768
							l-1.005-2.195c-2.395-5.269-1.992-10.114-1.688-12.035l-3.598-0.239c-0.707-0.049-1.406-0.49-2.135-1.354
							c-4.38-5.176-10.074-26.973-9.782-29.898c0.152-1.51,1.27-2.376,3.069-2.376c1.096,0,2.216,0.306,2.741,0.471
							c-0.089-1.339-0.242-3.237-0.492-5.931c-1.456-15.728,5.255-36.639,10.451-45.082c4.817-7.83,32.623-16.502,33.805-16.867
							l0.219-0.033l8.498,0.033c1.18,0.365,28.984,9.037,33.803,16.867c5.197,8.444,11.908,29.356,10.451,45.082
							c-0.248,2.691-0.4,4.592-0.49,5.931c0.523-0.165,1.645-0.471,2.739-0.471c1.801,0,2.919,0.866,3.071,2.376
							c0.291,2.926-5.403,24.723-9.783,29.898c-0.729,0.863-1.428,1.305-2.136,1.354l-3.596,0.239
							c0.304,1.921,0.705,6.767-1.688,12.035l-1.006,2.192c-2.711,5.903-6.809,14.824-6.322,17.771
							c0.541,3.265,0.122,16.625,0.026,19.444c5.396,2.378,56.214,24.822,68.482,32.351c0.712,0.437,1.466,0.891,2.258,1.368
							c13.559,8.166,38.797,23.366,37.102,64.307c-1.276,30.885-1.325,42.337-1.364,51.539c-0.016,3.599-0.028,6.707-0.111,10.505
							l-0.051,2.221c-0.311,13.502-0.834,36.101,4.448,52.504c6.202,19.257,18.081,66.194,18.652,106.013
							c0.576,39.976,1.685,51.254,5.39,54.854c1.096,1.063,2.961,2.416,5.121,3.982c5.207,3.777,12.34,8.949,15.128,14.863
							c3.854,8.178,14.976,24.401,17.067,27.26c0.906,1.236,1.053,2.676,0.407,3.95c-0.758,1.496-2.457,2.462-4.329,2.463
							c-1.115,0-2.248-0.343-3.277-0.992c-2.102-1.326-4.763-5.026-7.338-8.604c-1.924-2.675-4.832-6.715-5.743-6.743
							c-0.7,0.129-1.241,0.494-1.636,1.117c-0.803,1.264-1.373,4.223,0.465,11.135c1.021,3.848,2.998,9.734,4.912,15.427
							c4.77,14.198,6.128,18.811,5.328,20.009c-0.157,0.24-0.328,0.541-0.515,0.871c-0.839,1.479-2.103,3.713-4.249,3.713
							c-1.114,0-2.249-0.592-3.469-1.813c-1.016-1.017-1.634-1.169-1.91-1.169c-0.155,0-0.394,0.039-0.656,0.377
							c-0.736,0.941-0.941,3.245-0.622,4.524c0.979,3.928,1.842,9,0.39,10.86c-0.806,1.032-2.148,1.079-3.87-0.007
							c-2.446-1.546-4.5-3.36-6.313-4.961c-2.307-2.035-4.295-3.793-6.119-4.096c-2.199-0.367-3.287-2.338-4.338-4.245
							c-0.861-1.56-1.753-3.173-3.213-3.782c-1.004-0.416-1.678-0.558-2.273-0.683c-1.688-0.353-2.733-0.7-6.239-4.206
							c-3.638-3.635-5.176-9.447-6.663-15.069c-0.63-2.386-1.282-4.854-2.08-7.071c-1.583-4.393-2.604-19.139-3.592-33.396
							c-0.679-9.816-1.32-19.088-2.055-23.049c-1.109-5.984-3.155-10.99-6.545-19.283c-1.951-4.773-4.381-10.715-7.311-18.531
							c-8.149-21.73-17.862-70.088-20.434-92.083l-0.407-3.483c-2.146-18.439-6.616-56.812-9.599-58.396
							c-2.802,0.017-8.923,13.017-9.797,30.801c-0.922,18.739,1.582,51.081,7.363,72.765l0.635,2.379
							c5.817,21.783,11.831,44.309,12.689,64.158c0.16,3.732,0.638,8.812,1.191,14.691c2.596,27.596,6.94,73.781-5.648,120.99
							c-15.735,59.006-16.848,74.183-17.706,100.309c-0.747,22.658,1.715,35.476,4.566,50.317c0.532,2.766,1.08,5.616,1.627,8.629
							c3.579,19.679-0.416,69.583-5.924,89.87c-5.692,20.968-15.05,72.573-15.935,85.556c-0.09,1.326-0.18,2.572-0.266,3.749
							c-0.755,10.432-1.102,15.191,2.263,22.181c1.651,3.429,7.092,9.48,12.354,15.332c7.271,8.085,14.14,15.722,14.317,19.479
							c0.295,6.283-0.259,8.202-2.465,11.986c-0.769,1.316-1.333,2.517-1.83,3.577c-0.863,1.832-1.542,3.278-2.769,4.3
							c-0.938,0.782-2.071,0.993-3.171,1.198c-1.211,0.226-2.258,0.42-2.906,1.326l-0.285,0.4c-0.874,1.237-0.977,1.316-2.772,2.098
							c-0.648,0.283-1.548,0.675-2.845,1.285c-0.946,0.444-1.993,0.67-3.114,0.67c-1.796,0-3.544-0.573-4.945-1.034
							c-0.95-0.312-1.849-0.606-2.431-0.606c-0.393,0-0.53,0.106-0.635,0.495C671.536,1138.485,667.594,1142.146,663.527,1142.146z"
							/>
					</g>
				</g>
			</g>
		</g>
		<g>
			<g>
				<g>
					<g>
						<path fill="#E7663F" d="M663.352,1140.449c-2.238,0-4.185-1.119-5.628-3.235l-0.543-0.794
							c-4.433-6.496-11.132-16.311-14.272-25.823c-1.237-3.742-1.759-5.916-2.105-7.356c-0.556-2.326-0.689-2.879-2.794-5.717
							c-2.529-3.412-0.504-11.731,1.283-19.071c0.881-3.615,1.712-7.031,1.812-9.173c0.05-1.08,0.155-2.329,0.28-3.775l0.16-1.896
							c0.131-1.612-0.8-3.676-1.877-6.065c-1.474-3.268-3.308-7.334-3.389-12.301c-0.05-3.083,0.78-6.387,1.741-10.212
							c1.38-5.49,2.943-11.714,2.203-18.933c-0.707-6.904-1.596-14.869-2.536-23.304c-3.756-33.705-8.43-75.651-6.298-91.756
							c2.558-19.319,2.691-41.75,0.309-52.176c-2.467-10.789-7.092-67.307-7.674-100.015c-0.643-35.774-7.083-83.18-11.634-86.261
							c-4.554,3.081-10.994,50.486-11.634,86.261c-0.585,32.72-5.212,89.235-7.675,100.015c-2.383,10.428-2.25,32.858,0.307,52.175
							c2.163,16.336-2.495,57.903-6.236,91.304c-0.964,8.597-1.874,16.718-2.596,23.757c-0.66,6.427,1.698,11.898,3.779,16.726
							c1.542,3.577,2.999,6.955,2.925,10.141c-0.213,9.233-3.259,15.651-5.483,20.338c-1.21,2.552-2.167,4.568-2.102,5.979
							c0.097,2.143,0.93,5.561,1.811,9.179c1.787,7.338,3.812,15.654,1.283,19.065c-2.104,2.838-2.237,3.391-2.794,5.716
							c-0.345,1.44-0.866,3.615-2.104,7.358c-3.141,9.512-9.842,19.327-14.275,25.823l-0.541,0.793
							c-1.443,2.116-3.39,3.235-5.628,3.235c-4.054,0.001-7.983-3.647-8.653-6.107c-0.106-0.389-0.244-0.495-0.636-0.495
							c-0.58,0-1.474,0.294-2.421,0.605c-1.398,0.458-3.14,1.03-4.931,1.03c-1.116,0-2.158-0.225-3.1-0.667
							c-1.29-0.607-2.187-0.998-2.833-1.279c-1.793-0.781-1.896-0.86-2.767-2.097l-0.284-0.399
							c-0.645-0.902-1.688-1.097-2.896-1.322c-1.095-0.202-2.226-0.412-3.16-1.189c-1.223-1.021-1.9-2.462-2.758-4.288
							c-0.496-1.056-1.059-2.253-1.824-3.563c-2.199-3.775-2.752-5.688-2.456-11.949c0.177-3.745,7.021-11.358,14.268-19.419
							c5.243-5.833,10.666-11.864,12.312-15.283c3.352-6.963,3.009-11.709,2.255-22.107c-0.085-1.174-0.175-2.417-0.265-3.738
							c-0.882-12.943-10.208-64.385-15.881-85.286c-5.489-20.223-9.468-69.969-5.904-89.586c0.546-3.003,1.092-5.843,1.622-8.601
							c2.842-14.795,5.297-27.572,4.553-50.159c-0.86-26.051-1.968-41.182-17.647-99.988c-12.548-47.064-8.217-93.105-5.629-120.613
							c0.551-5.859,1.027-10.919,1.188-14.638c0.855-19.787,6.847-42.238,12.641-63.949l0.634-2.38
							c5.765-21.617,8.259-53.855,7.341-72.535c-0.871-17.728-6.972-30.686-9.814-30.686c-2.92,1.563-7.374,39.801-9.515,58.176
							l-0.407,3.491c-2.562,21.926-12.242,70.13-20.364,91.788c-2.92,7.792-5.341,13.717-7.286,18.477
							c-3.377,8.266-5.415,13.254-6.521,19.22c-0.731,3.948-1.371,13.19-2.049,22.975c-0.983,14.214-2.001,28.914-3.578,33.293
							c-0.795,2.208-1.444,4.668-2.073,7.046c-1.483,5.605-3.015,11.4-6.641,15.026c-3.494,3.494-4.534,3.84-6.217,4.192
							c-0.595,0.123-1.267,0.265-2.266,0.68c-1.457,0.606-2.345,2.215-3.202,3.77c-1.048,1.9-2.134,3.865-4.324,4.231
							c-1.817,0.304-3.8,2.054-6.097,4.081c-1.808,1.596-3.856,3.404-6.295,4.945c-1.715,1.084-3.054,1.035-3.856,0.008
							c-1.449-1.855-0.588-6.91,0.39-10.826c0.317-1.275,0.112-3.571-0.621-4.51c-0.263-0.336-0.499-0.375-0.655-0.375
							c-0.276,0-0.89,0.152-1.906,1.167c-1.213,1.214-2.343,1.805-3.454,1.805c-2.139,0-3.399-2.227-4.233-3.7
							c-0.187-0.329-0.356-0.63-0.514-0.867c-0.797-1.195,0.557-5.795,5.313-19.954c1.906-5.672,3.876-11.537,4.895-15.37
							c1.83-6.894,1.26-9.843,0.459-11.102c-0.393-0.62-0.931-0.984-1.646-1.115c-0.891,0.031-3.789,4.059-5.706,6.724
							c-2.565,3.566-5.219,7.255-7.315,8.577c-1.025,0.647-2.152,0.988-3.264,0.988c-1.867,0.001-3.561-0.963-4.316-2.453
							c-0.645-1.272-0.497-2.708,0.406-3.941c2.082-2.844,13.154-18.992,17.009-27.17c2.779-5.895,9.884-11.051,15.074-14.814
							c2.154-1.563,4.014-2.914,5.107-3.975c3.694-3.584,4.798-14.826,5.37-54.679c0.57-39.688,12.41-86.479,18.59-105.677
							c5.265-16.352,4.744-38.879,4.433-52.34l-0.05-2.211c-0.083-3.788-0.096-6.889-0.111-10.479
							c-0.039-9.174-0.086-20.588-1.36-51.367c-1.688-40.813,23.464-55.965,36.976-64.105c0.789-0.475,1.542-0.928,2.251-1.363
							c12.228-7.506,62.871-29.877,68.248-32.247c-0.095-2.812-0.511-16.128,0.028-19.383c0.485-2.939-3.604-11.84-6.31-17.729
							l-0.994-2.171c-2.386-5.253-1.985-10.083-1.682-11.997l-3.585-0.238c-0.706-0.049-1.401-0.488-2.129-1.35
							c-4.365-5.16-10.039-26.887-9.747-29.803c0.15-1.506,1.265-2.369,3.057-2.369c1.092,0,2.208,0.305,2.732,0.471
							c-0.089-1.336-0.241-3.229-0.489-5.914c-1.451-15.674,5.237-36.52,10.415-44.938c4.802-7.806,32.514-16.449,33.689-16.813
							l0.219-0.032l8.469,0.032c1.178,0.364,28.889,9.008,33.691,16.813c5.178,8.418,11.863,29.264,10.414,44.938
							c-0.25,2.685-0.4,4.578-0.491,5.914c0.523-0.164,1.641-0.471,2.733-0.471c1.792,0,2.906,0.863,3.058,2.369
							c0.291,2.918-5.386,24.646-9.75,29.805c-0.728,0.859-1.424,1.299-2.129,1.348l-3.583,0.238
							c0.305,1.914,0.705,6.744-1.682,11.997l-0.999,2.181c-2.704,5.887-6.791,14.783-6.305,17.72
							c0.538,3.255,0.122,16.571,0.026,19.383c5.379,2.37,56.021,24.741,68.25,32.247c0.708,0.436,1.461,0.889,2.252,1.363
							c13.51,8.141,38.662,23.293,36.975,64.105c-1.273,30.771-1.321,42.186-1.36,51.359c-0.016,3.593-0.028,6.696-0.112,10.486
							l-0.05,2.223c-0.312,13.457-0.83,35.98,4.433,52.328c6.181,19.197,18.02,65.988,18.589,105.677
							c0.574,39.853,1.678,51.095,5.372,54.679c1.094,1.061,2.952,2.41,5.105,3.973c5.19,3.766,12.297,8.922,15.076,14.816
							c3.861,8.192,14.927,24.331,17.008,27.172c0.902,1.231,1.051,2.667,0.405,3.939c-0.756,1.49-2.448,2.453-4.314,2.453
							c-1.11,0.001-2.238-0.341-3.263-0.988c-2.099-1.322-4.751-5.011-7.317-8.577c-1.916-2.665-4.813-6.692-5.723-6.722
							c-0.698,0.129-1.237,0.493-1.632,1.113c-0.799,1.259-1.366,4.208,0.463,11.102c1.018,3.833,2.989,9.698,4.895,15.37
							c4.756,14.159,6.109,18.759,5.314,19.954c-0.159,0.238-0.328,0.538-0.514,0.868c-0.835,1.473-2.097,3.699-4.236,3.699
							c-1.109,0.001-2.24-0.591-3.455-1.805c-1.015-1.015-1.63-1.167-1.906-1.167c-0.152,0-0.39,0.039-0.652,0.375
							c-0.733,0.938-0.938,3.234-0.62,4.51c0.975,3.919,1.833,8.977,0.388,10.826c-0.803,1.029-2.142,1.075-3.854-0.008
							c-2.439-1.541-4.487-3.35-6.296-4.945c-2.295-2.027-4.279-3.777-6.095-4.081c-2.192-0.366-3.276-2.331-4.325-4.232
							c-0.859-1.555-1.746-3.162-3.202-3.769c-0.999-0.415-1.671-0.557-2.265-0.68c-1.684-0.353-2.725-0.698-6.22-4.192
							c-3.625-3.626-5.155-9.421-6.638-15.024c-0.629-2.379-1.279-4.838-2.074-7.048c-1.577-4.379-2.595-19.079-3.578-33.296
							c-0.678-9.782-1.318-19.023-2.051-22.972c-1.104-5.965-3.143-10.954-6.52-19.217c-1.944-4.761-4.364-10.687-7.286-18.479
							c-8.121-21.66-17.803-69.862-20.365-91.788l-0.407-3.492c-2.14-18.376-6.592-56.612-9.566-58.191
							c-2.79,0.017-8.89,12.975-9.761,30.702c-0.917,18.684,1.577,50.923,7.339,72.535l0.64,2.39
							c5.792,21.708,11.782,44.155,12.637,63.939c0.161,3.72,0.637,8.782,1.188,14.644c2.586,27.507,6.917,73.547-5.63,120.607
							c-15.679,58.813-16.787,73.943-17.646,99.988c-0.744,22.589,1.71,35.367,4.553,50.163c0.528,2.756,1.075,5.597,1.621,8.597
							c3.564,19.614-0.414,69.359-5.904,89.586c-5.67,20.896-14.998,72.339-15.881,85.286c-0.09,1.32-0.179,2.563-0.265,3.735
							c-0.753,10.398-1.097,15.146,2.256,22.11c1.645,3.419,7.067,9.45,12.311,15.283c7.247,8.062,14.091,15.675,14.268,19.419
							c0.296,6.263-0.256,8.175-2.454,11.947c-0.768,1.313-1.33,2.511-1.827,3.567c-0.856,1.824-1.535,3.267-2.757,4.286
							c-0.934,0.777-2.065,0.987-3.158,1.19c-1.209,0.225-2.254,0.419-2.897,1.321l-0.282,0.399
							c-0.872,1.236-0.975,1.315-2.769,2.096c-0.646,0.282-1.542,0.673-2.832,1.28c-0.941,0.442-1.983,0.667-3.101,0.667
							c-1.792,0-3.533-0.572-4.93-1.03c-0.948-0.312-1.842-0.605-2.422-0.605c-0.393,0-0.53,0.106-0.636,0.495
							C671.332,1136.802,667.403,1140.449,663.352,1140.449z M612.39,660.986l0.236,0.079c6.682,2.263,12.346,58.283,12.873,87.755
							c0.565,31.73,5.221,89.143,7.637,99.712c2.455,10.747,2.337,32.909-0.282,52.698c-2.109,15.928,2.556,57.773,6.301,91.398
							c0.941,8.438,1.828,16.407,2.538,23.316c0.767,7.479-0.832,13.836-2.24,19.444c-0.938,3.723-1.745,6.939-1.697,9.828
							c0.076,4.66,1.842,8.574,3.259,11.718c1.16,2.575,2.164,4.799,2.002,6.792l-0.16,1.902c-0.125,1.446-0.228,2.661-0.276,3.718
							c-0.104,2.284-0.952,5.767-1.853,9.455c-1.625,6.677-3.648,14.985-1.533,17.841c2.287,3.081,2.462,3.816,3.047,6.253
							c0.339,1.415,0.852,3.555,2.069,7.237c3.075,9.314,9.704,19.027,14.091,25.452l0.543,0.796
							c1.172,1.72,2.654,2.592,4.408,2.592c3.443,0,6.748-3.257,7.228-5.021c0.282-1.034,0.997-1.582,2.062-1.582
							c0.816,0,1.773,0.314,2.882,0.68c1.366,0.447,2.915,0.957,4.47,0.957c0.908,0,1.719-0.174,2.471-0.527
							c1.31-0.615,2.218-1.012,2.873-1.298c1.482-0.646,1.482-0.646,2.148-1.593l0.289-0.408c0.992-1.387,2.498-1.667,3.83-1.913
							c0.948-0.177,1.846-0.343,2.481-0.874c0.973-0.811,1.588-2.121,2.367-3.78c0.511-1.084,1.089-2.313,1.886-3.682
							c1.944-3.339,2.549-4.938,2.256-11.134c-0.151-3.22-7.45-11.338-13.889-18.502c-5.559-6.183-10.809-12.021-12.545-15.63
							c-3.523-7.319-3.147-12.512-2.396-22.857c0.084-1.172,0.173-2.411,0.263-3.729c0.888-13,10.243-64.617,15.931-85.573
							c5.451-20.091,9.41-69.479,5.874-88.934c-0.544-2.997-1.089-5.832-1.616-8.582c-2.86-14.884-5.328-27.737-4.58-50.49
							c0.927-28.112,2.691-44.043,17.696-100.322c12.479-46.804,8.164-92.679,5.587-120.087c-0.555-5.882-1.032-10.961-1.194-14.719
							c-0.85-19.623-6.817-41.99-12.591-63.622l-0.637-2.39c-5.799-21.752-8.311-54.192-7.389-72.988
							c0.873-17.776,6.89-32.091,11.289-32.091c3.139,0.116,5.686,14.013,10.98,59.481l0.408,3.491
							c2.553,21.854,12.196,69.88,20.279,91.442c2.915,7.773,5.331,13.687,7.271,18.438c3.412,8.351,5.473,13.392,6.604,19.506
							c0.747,4.032,1.391,13.313,2.07,23.14c0.933,13.458,1.987,28.711,3.495,32.898c0.816,2.27,1.476,4.761,2.113,7.17
							c1.432,5.415,2.91,11.014,6.255,14.356c3.347,3.347,4.147,3.515,5.478,3.792c0.623,0.129,1.403,0.293,2.529,0.762
							c1.934,0.805,2.991,2.725,3.926,4.419c0.96,1.739,1.788,3.241,3.277,3.489c2.233,0.372,4.362,2.252,6.83,4.43
							c1.766,1.56,3.768,3.327,6.106,4.805c0.746,0.472,1.195,0.57,1.44,0.57c0.204,0,0.338-0.064,0.463-0.224
							c0.806-1.03,0.554-4.694-0.657-9.56c-0.359-1.437-0.25-4.32,0.889-5.776c0.479-0.616,1.108-0.942,1.815-0.942
							c0.909,0,1.875,0.523,2.95,1.599c0.911,0.911,1.722,1.373,2.411,1.373c1.279,0,2.245-1.706,2.95-2.951
							c0.206-0.363,0.396-0.694,0.571-0.959c0.361-1.263-3.018-11.32-5.485-18.663c-1.912-5.695-3.892-11.584-4.921-15.463
							c-1.604-6.033-1.695-10.047-0.283-12.272c0.617-0.972,1.502-1.57,2.631-1.774c1.553-0.294,3.613,2.371,7.17,7.313
							c2.367,3.291,5.051,7.021,6.902,8.191c0.789,0.497,1.646,0.76,2.476,0.76c1.315,0,2.492-0.646,3-1.645
							c0.39-0.77,0.291-1.621-0.28-2.4c-2.094-2.86-13.245-19.125-17.152-27.415c-2.617-5.551-9.547-10.578-14.607-14.249
							c-2.199-1.596-4.098-2.974-5.268-4.107c-4.091-3.97-5.232-14.904-5.818-55.719c-0.567-39.513-12.361-86.12-18.52-105.244
							c-5.339-16.584-4.815-39.265-4.502-52.815l0.05-2.22c0.083-3.779,0.097-6.875,0.111-10.461
							c0.038-9.186,0.088-20.617,1.36-51.416c1.653-39.938-23.011-54.795-36.26-62.778c-0.793-0.478-1.552-0.933-2.263-1.37
							c-12.769-7.836-67.973-32.111-68.529-32.355l-0.46-0.201l0.02-0.502c0.005-0.16,0.576-16.166,0.01-19.588
							c-0.562-3.385,3.309-11.809,6.418-18.578l0.997-2.174c2.797-6.153,1.443-11.832,1.428-11.889l-0.21-0.855l5.293-0.355
							c0.127-0.008,0.491-0.105,1.1-0.827c4.279-5.056,9.637-26.413,9.408-28.704c-0.033-0.337-0.105-1.039-1.588-1.039
							c-0.799,0-1.653,0.213-2.135,0.355c-0.465,2.439-0.71,2.779-1.341,2.779c-0.002,0-0.002,0-0.002,0h-0.326l-0.243-0.254
							c-0.298-0.326-0.532-0.584,0.333-9.938c1.472-15.881-5.747-36.785-10.201-44.027c-4.374-7.108-30.864-15.546-32.764-16.143
							h-8.026c-1.898,0.597-28.389,9.034-32.762,16.143c-4.454,7.242-11.672,28.146-10.202,44.027
							c0.865,9.355,0.641,9.6,0.333,9.938l-0.219,0.241l-0.352,0.013c-0.631,0-0.877-0.34-1.341-2.779
							c-0.482-0.143-1.335-0.355-2.134-0.355c-1.485,0-1.555,0.702-1.588,1.039c-0.229,2.289,5.126,23.645,9.405,28.704
							c0.61,0.722,0.972,0.819,1.1,0.827l5.298,0.354l-0.211,0.856c-0.014,0.057-1.369,5.735,1.427,11.889l0.991,2.164
							c3.111,6.773,6.984,15.203,6.425,18.588c-0.566,3.422,0.003,19.428,0.01,19.588l0.018,0.502l-0.459,0.201
							c-0.556,0.244-55.761,24.52-68.529,32.355c-0.712,0.438-1.467,0.893-2.261,1.37c-13.25,7.983-37.914,22.841-36.263,62.778
							c1.275,30.809,1.323,42.238,1.362,51.423c0.016,3.583,0.028,6.679,0.11,10.454l0.051,2.209
							c0.313,13.553,0.837,36.237-4.504,52.826c-6.156,19.123-17.951,65.731-18.52,105.244c-0.584,40.814-1.727,51.749-5.817,55.719
							c-1.168,1.134-3.068,2.513-5.269,4.107c-5.06,3.671-11.988,8.698-14.605,14.25c-3.899,8.273-15.057,24.55-17.153,27.414
							c-0.57,0.779-0.67,1.632-0.28,2.4c0.506,0.998,1.683,1.645,2.999,1.645c0.832,0,1.688-0.263,2.477-0.76
							c1.853-1.17,4.536-4.9,6.904-8.191c3.554-4.94,5.62-7.613,7.169-7.313c1.127,0.204,2.011,0.803,2.629,1.774
							c1.412,2.227,1.32,6.239-0.28,12.272c-1.03,3.879-3.008,9.768-4.922,15.463c-2.467,7.343-5.845,17.4-5.451,18.729
							c0.142,0.199,0.331,0.53,0.537,0.894c0.704,1.245,1.67,2.951,2.948,2.951c0.689,0,1.5-0.462,2.41-1.372
							c1.077-1.076,2.042-1.6,2.95-1.6c0.708,0,1.336,0.326,1.818,0.942c1.138,1.456,1.248,4.34,0.891,5.776
							c-1.214,4.863-1.467,8.526-0.658,9.56c0.124,0.159,0.258,0.224,0.462,0.224c0.246,0,0.695-0.099,1.442-0.57
							c2.339-1.479,4.34-3.245,6.106-4.805c2.467-2.178,4.597-4.058,6.831-4.43c1.487-0.248,2.314-1.75,3.273-3.489
							c0.936-1.694,1.994-3.614,3.928-4.419c1.127-0.469,1.906-0.633,2.531-0.762c1.328-0.277,2.131-0.445,5.475-3.792
							c3.345-3.343,4.826-8.942,6.256-14.358c0.637-2.408,1.296-4.899,2.112-7.168c1.507-4.188,2.563-19.439,3.496-32.896
							c0.68-9.827,1.322-19.109,2.069-23.142c1.133-6.114,3.194-11.156,6.606-19.509c1.941-4.752,4.356-10.664,7.27-18.436
							c8.086-21.562,17.727-69.588,20.281-91.442l0.407-3.49c5.295-45.468,7.843-59.366,10.9-59.479
							c4.479-0.003,10.496,14.313,11.37,32.088c0.923,18.793-1.588,51.232-7.39,72.988l-0.635,2.38
							c-5.773,21.634-11.743,44.005-12.592,63.632c-0.163,3.756-0.641,8.834-1.193,14.713c-2.579,27.41-6.895,73.285,5.585,120.093
							c15.003,56.271,16.77,72.205,17.697,100.322c0.749,22.751-1.72,35.604-4.579,50.486c-0.529,2.752-1.075,5.588-1.619,8.586
							c-3.536,19.458,0.423,68.845,5.875,88.934c5.689,20.961,15.044,72.578,15.928,85.573c0.09,1.32,0.181,2.562,0.265,3.732
							c0.749,10.344,1.126,15.536-2.397,22.854c-1.738,3.608-6.986,9.447-12.544,15.629c-6.439,7.164-13.738,15.283-13.891,18.503
							c-0.292,6.194,0.313,7.795,2.257,11.135c0.799,1.368,1.375,2.596,1.885,3.68c0.781,1.66,1.397,2.971,2.367,3.781
							c0.638,0.531,1.534,0.697,2.484,0.874c1.33,0.246,2.837,0.526,3.829,1.913l0.29,0.409c0.666,0.946,0.666,0.946,2.149,1.594
							c0.655,0.284,1.563,0.681,2.871,1.296c0.753,0.354,1.562,0.527,2.471,0.527c1.556,0,3.104-0.51,4.47-0.957
							c1.108-0.365,2.066-0.68,2.882-0.68c1.065,0,1.778,0.548,2.061,1.583c0.48,1.764,3.784,5.021,7.227,5.021
							c1.753,0,3.236-0.873,4.409-2.592l0.541-0.793c4.387-6.427,11.016-16.14,14.093-25.454c1.218-3.685,1.73-5.823,2.07-7.239
							c0.583-2.436,0.76-3.171,3.044-6.252c2.117-2.855,0.093-11.162-1.532-17.837c-0.898-3.689-1.748-7.174-1.852-9.459
							c-0.081-1.778,0.945-3.941,2.244-6.68c2.167-4.566,5.134-10.821,5.34-19.74c0.066-2.861-1.264-5.948-2.804-9.521
							c-2.152-4.993-4.592-10.652-3.892-17.461c0.721-7.045,1.631-15.169,2.595-23.77c3.734-33.32,8.38-74.789,6.242-90.946
							c-2.62-19.786-2.739-41.948-0.284-52.697c2.415-10.56,7.072-67.971,7.639-99.712c0.527-29.472,6.189-85.492,12.874-87.755
							L612.39,660.986z"/>
					</g>
				</g>
			</g>
		</g>
	</g>
	<rect x="331.979" y="50" fill="none" width="536.041" height="1100"/>
</g>
</svg>
